<svg xmlns="http://www.w3.org/2000/svg" viewBox="0 0 192 192" width="512" height="512">
  <rect width="512" height="512" rx="40" fill="#2563EB"/>
  <rect x="60" y="28" width="72" height="136" rx="12" fill="white" opacity="0.15"/>
  <rect x="66" y="36" width="60" height="110" rx="8" fill="white" opacity="0.2"/>
  <rect x="66" y="36" width="60" height="110" rx="8" fill="#1E3A8A"/>
  <rect x="72" y="46" width="48" height="72" rx="4" fill="white" opacity="0.9"/>
  <circle cx="96" cy="134" r="6" fill="white" opacity="0.8"/>
  <rect x="84" y="32" width="24" height="4" rx="2" fill="white" opacity="0.5"/>
  <!-- Phone screen content dots -->
  <rect x="78" y="54" width="14" height="10" rx="2" fill="#2563EB" opacity="0.7"/>
  <rect x="96" y="54" width="14" height="10" rx="2" fill="#2563EB" opacity="0.7"/>
  <rect x="78" y="68" width="14" height="10" rx="2" fill="#F59E0B" opacity="0.8"/>
  <rect x="96" y="68" width="14" height="10" rx="2" fill="#10B981" opacity="0.7"/>
  <rect x="78" y="92" width="32" height="6" rx="3" fill="#2563EB" opacity="0.4"/>
  <rect x="78" y="102" width="22" height="4" rx="2" fill="#2563EB" opacity="0.3"/>
</svg>